<svg viewBox="0 0 400 300" xmlns="http://www.w3.org/2000/svg">
  <rect width="400" height="300" fill="#E1F5EE"/>
  <rect x="0" y="230" width="400" height="70" fill="#9FE1CB"/>
  <!-- bucket -->
  <g transform="translate(150,140)">
    <path d="M0 0 L100 0 L88 90 L12 90 Z" fill="#1D9E75" stroke="#085041" stroke-width="3"/>
    <ellipse cx="50" cy="0" rx="50" ry="10" fill="#5DCAA5" stroke="#085041" stroke-width="3"/>
    <path d="M15 0 Q50 -35 85 0" fill="none" stroke="#085041" stroke-width="4"/>
  </g>
  <!-- bubbles -->
  <g fill="#FFFFFF" stroke="#085041" stroke-width="2" opacity="0.9">
    <circle cx="120" cy="100" r="14"/>
    <circle cx="150" cy="75" r="9"/>
    <circle cx="280" cy="95" r="16"/>
    <circle cx="250" cy="65" r="8"/>
    <circle cx="300" cy="130" r="7"/>
  </g>
  <!-- scrub brush -->
  <g transform="translate(170,200)">
    <rect x="0" y="0" width="60" height="22" rx="6" fill="#085041"/>
    <g stroke="#0F6E56" stroke-width="3">
      <line x1="6" y1="22" x2="6" y2="34"/>
      <line x1="16" y1="22" x2="16" y2="36"/>
      <line x1="26" y1="22" x2="26" y2="34"/>
      <line x1="36" y1="22" x2="36" y2="36"/>
      <line x1="46" y1="22" x2="46" y2="34"/>
      <line x1="54" y1="22" x2="54" y2="36"/>
    </g>
  </g>
  <!-- sparkles -->
  <g fill="#EF9F27">
    <path d="M75 70 l4 10 10 4 -10 4 -4 10 -4 -10 -10 -4 10 -4 z"/>
    <path d="M330 180 l3 7 7 3 -7 3 -3 7 -3 -7 -7 -3 7 -3 z"/>
  </g>
</svg>
