<svg viewBox="0 0 400 300" xmlns="http://www.w3.org/2000/svg">
  <rect width="400" height="300" fill="#E1F5EE"/>
  <rect x="0" y="230" width="400" height="70" fill="#9FE1CB"/>
  <!-- building -->
  <rect x="110" y="40" width="180" height="190" fill="#FFFFFF" stroke="#085041" stroke-width="3"/>
  <!-- windows grid -->
  <g fill="#5DCAA5" stroke="#085041" stroke-width="1.5">
    <rect x="130" y="60" width="30" height="30"/>
    <rect x="175" y="60" width="30" height="30"/>
    <rect x="220" y="60" width="30" height="30"/>
    <rect x="265" y="60" width="15" height="30"/>
    <rect x="130" y="105" width="30" height="30"/>
    <rect x="175" y="105" width="30" height="30"/>
    <rect x="220" y="105" width="30" height="30"/>
    <rect x="265" y="105" width="15" height="30"/>
    <rect x="130" y="150" width="30" height="30"/>
    <rect x="175" y="150" width="30" height="30"/>
    <rect x="220" y="150" width="30" height="30"/>
    <rect x="265" y="150" width="15" height="30"/>
  </g>
  <rect x="180" y="195" width="40" height="35" fill="#0F6E56"/>
  <!-- briefcase -->
  <g transform="translate(60,210)">
    <rect x="0" y="10" width="50" height="36" rx="4" fill="#1D9E75" stroke="#085041" stroke-width="2"/>
    <rect x="16" y="0" width="18" height="14" rx="2" fill="none" stroke="#085041" stroke-width="2"/>
    <line x1="0" y1="26" x2="50" y2="26" stroke="#085041" stroke-width="2"/>
  </g>
  <!-- sparkle -->
  <g fill="#EF9F27">
    <path d="M320 90 l4 10 10 4 -10 4 -4 10 -4 -10 -10 -4 10 -4 z"/>
    <path d="M90 70 l3 7 7 3 -7 3 -3 7 -3 -7 -7 -3 7 -3 z"/>
  </g>
</svg>
