<svg viewBox="0 0 400 300" xmlns="http://www.w3.org/2000/svg">
  <rect width="400" height="300" fill="#E1F5EE"/>
  <rect x="0" y="230" width="400" height="70" fill="#9FE1CB"/>
  <!-- calendar -->
  <rect x="120" y="70" width="160" height="140" rx="10" fill="#FFFFFF" stroke="#085041" stroke-width="3"/>
  <rect x="120" y="70" width="160" height="35" rx="10" fill="#0F6E56"/>
  <rect x="150" y="55" width="10" height="30" rx="3" fill="#085041"/>
  <rect x="240" y="55" width="10" height="30" rx="3" fill="#085041"/>
  <g fill="#5DCAA5">
    <rect x="135" y="120" width="20" height="20" rx="3"/>
    <rect x="165" y="120" width="20" height="20" rx="3"/>
    <rect x="195" y="120" width="20" height="20" rx="3" fill="#EF9F27"/>
    <rect x="225" y="120" width="20" height="20" rx="3"/>
    <rect x="135" y="150" width="20" height="20" rx="3"/>
    <rect x="165" y="150" width="20" height="20" rx="3" fill="#EF9F27"/>
    <rect x="195" y="150" width="20" height="20" rx="3"/>
    <rect x="225" y="150" width="20" height="20" rx="3"/>
    <rect x="135" y="180" width="20" height="20" rx="3" fill="#EF9F27"/>
    <rect x="165" y="180" width="20" height="20" rx="3"/>
    <rect x="195" y="180" width="20" height="20" rx="3"/>
    <rect x="225" y="180" width="20" height="20" rx="3"/>
  </g>
  <!-- repeat arrow -->
  <g transform="translate(60,150)" stroke="#085041" stroke-width="4" fill="none">
    <path d="M0 20 A20 20 0 1 1 35 35" stroke-linecap="round"/>
    <polygon points="35,35 22,30 30,18" fill="#085041" stroke="none"/>
  </g>
</svg>
