<svg viewBox="0 0 400 300" xmlns="http://www.w3.org/2000/svg">
  <rect width="400" height="300" fill="#E1F5EE"/>
  <rect x="0" y="230" width="400" height="70" fill="#9FE1CB"/>
  <!-- window frame -->
  <rect x="110" y="50" width="180" height="180" fill="#FFFFFF" stroke="#085041" stroke-width="4"/>
  <line x1="200" y1="50" x2="200" y2="230" stroke="#085041" stroke-width="4"/>
  <line x1="110" y1="140" x2="290" y2="140" stroke="#085041" stroke-width="4"/>
  <rect x="118" y="58" width="74" height="74" fill="#9FE1CB" opacity="0.5"/>
  <rect x="208" y="58" width="74" height="74" fill="#9FE1CB" opacity="0.5"/>
  <rect x="118" y="148" width="74" height="74" fill="#9FE1CB" opacity="0.5"/>
  <rect x="208" y="148" width="74" height="74" fill="#9FE1CB" opacity="0.5"/>
  <!-- squeegee -->
  <g transform="translate(225,95) rotate(35)">
    <rect x="0" y="0" width="70" height="12" rx="3" fill="#085041"/>
    <rect x="70" y="-3" width="8" height="18" fill="#0F6E56"/>
    <rect x="78" y="-10" width="6" height="50" fill="#5DCAA5"/>
  </g>
  <!-- shine streaks -->
  <g stroke="#FFFFFF" stroke-width="4" opacity="0.8">
    <line x1="130" y1="180" x2="160" y2="150"/>
    <line x1="145" y1="190" x2="175" y2="160"/>
  </g>
  <!-- sparkles -->
  <g fill="#EF9F27">
    <path d="M75 80 l4 10 10 4 -10 4 -4 10 -4 -10 -10 -4 10 -4 z"/>
    <path d="M320 200 l3 7 7 3 -7 3 -3 7 -3 -7 -7 -3 7 -3 z"/>
  </g>
</svg>
